<?xml version="1.0" encoding="utf-8"?>
<!-- Generator: Adobe Illustrator 25.4.0, SVG Export Plug-In . SVG Version: 6.00 Build 0)  -->
<svg version="1.1" id="visual" xmlns="http://www.w3.org/2000/svg" xmlns:xlink="http://www.w3.org/1999/xlink" x="0px" y="0px"
	 viewBox="0 0 900 170" style="enable-background:new 0 0 900 170;" xml:space="preserve">
<style type="text/css">
	.st0{fill:#FA7268;}
	.st1{fill:#BE5076;}
	.st2{fill:#302B4F;}
	.st3{fill:#001122;}
</style>
<path class="st0" d="M0,13.1l21.5,5.3C43,23.7,86,34.3,128.8,43c42.9,8.6,85.5,15.3,128.4,17.8C300,63.3,343,61.6,385.8,51
	c42.9-10.6,85.5-30.2,128.4-35.7C557,9.6,600,18,642.8,27.5c42.9,9.6,85.5,20.3,128.4,17.4C814,42.1,857,25.5,878.5,17.3L900,9v161
	h-21.5c-21.5,0-64.5,0-107.3,0c-42.9,0-85.5,0-128.4,0c-42.8,0-85.8,0-128.6,0c-42.9,0-85.5,0-128.4,0c-42.8,0-85.8,0-128.6,0
	c-42.9,0-85.5,0-128.4,0c-42.8,0-85.8,0-107.3,0H0V13.1z"/>
<path class="st1" d="M0,19.1l21.5,8.4C43,35.8,86,52.6,128.8,53.3c42.9,0.7,85.5-14.8,128.4-22.7c42.8-7.8,85.8-8,128.6-0.1
	c42.9,7.9,85.5,23.9,128.4,25C557,56.7,600,42.9,642.8,32.2c42.9-10.6,85.5-18,128.4-16.6C814,17,857,27.2,878.5,32.2l21.5,5.1V170
	h-21.5c-21.5,0-64.5,0-107.3,0c-42.9,0-85.5,0-128.4,0c-42.8,0-85.8,0-128.6,0c-42.9,0-85.5,0-128.4,0c-42.8,0-85.8,0-128.6,0
	c-42.9,0-85.5,0-128.4,0c-42.8,0-85.8,0-107.3,0H0V19.1z"/>
<path class="st2" d="M0,0l21.5,5.7C43,11.3,86,22.7,128.8,36.5c42.9,13.8,85.5,30.2,128.4,27.8C300,62,343,41,385.8,31.2
	c42.9-9.9,85.5-8.5,128.4,1.3C557,42.3,600,60.7,642.8,60.3C685.7,60,728.3,41,771.2,34c42.8-7,85.8-2,107.3,0.5L900,37v133h-21.5
	c-21.5,0-64.5,0-107.3,0c-42.9,0-85.5,0-128.4,0c-42.8,0-85.8,0-128.6,0c-42.9,0-85.5,0-128.4,0c-42.8,0-85.8,0-128.6,0
	c-42.9,0-85.5,0-128.4,0c-42.8,0-85.8,0-107.3,0H0V0z"/>
<path class="st3" d="M0,84l21.5,3.3c21.5,3.4,64.5,10,107.3,7c42.9-3,85.5-15.6,128.4-12C300,86,343,106,385.8,112.3
	c42.9,6.4,85.5-1,128.4-10.5c42.8-9.5,85.8-21.1,128.6-27C685.7,69,728.3,69,771.2,67c42.8-2,85.8-6,107.3-8l21.5-2v113h-21.5
	c-21.5,0-64.5,0-107.3,0c-42.9,0-85.5,0-128.4,0c-42.8,0-85.8,0-128.6,0c-42.9,0-85.5,0-128.4,0c-42.8,0-85.8,0-128.6,0
	c-42.9,0-85.5,0-128.4,0c-42.8,0-85.8,0-107.3,0H0V84z"/>
</svg>
