<svg id="Layer_1" data-name="Layer 1" xmlns="http://www.w3.org/2000/svg" xmlns:xlink="http://www.w3.org/1999/xlink" viewBox="0 0 117.87 191.22"><defs><style>.cls-1{fill:none;}.cls-2{fill:#a4b8ea;}.cls-3{fill:#8ea8dd;}.cls-4{fill:#425ac2;}.cls-5{fill:#fe958e;}.cls-6{fill:#0e24a5;}.cls-7{fill:#e98896;}.cls-8{fill:#ffb3b6;}.cls-9{clip-path:url(#clip-path);}.cls-10{fill:#ccc;}.cls-11{fill:#ffc1c1;}.cls-12{fill:#03053f;}</style><clipPath id="clip-path"><path class="cls-1" d="M54.72,57.88H75.24l2.56-30.4a4.67,4.67,0,0,0-4.65-5.07H56.81a4.67,4.67,0,0,0-4.66,5.07Z"/></clipPath></defs><path class="cls-2" d="M68.34,130.08c0-9.46,21.66-5.82,28.39-32.75,5.43-21.75-.73-24-.73-24H31.79s-6.58,2.37-.73,24c7.27,26.93,28.38,23.29,28.38,32.75,0,12.37-20.38,5.82-28.38,32.75-6.39,21.49.73,24,.73,24H96s6.15-2.26.73-24C90.73,138.81,68.34,142.45,68.34,130.08Z"/><path class="cls-3" d="M98.24,85.63H29.12c-3.77,0-6.83-2.6-6.83-5.79V75.07c0-3.2,3.06-5.8,6.83-5.8H98.24c3.77,0,6.83,2.6,6.83,5.8v4.77C105.07,83,102,85.63,98.24,85.63Z"/><path class="cls-4" d="M82.22,57.63H54.71v6.6c0,3.57,2.24,5.18,5.82,5.18h21c3.58,0,7.13-1.61,7.13-5.18V64.1A6.47,6.47,0,0,0,82.22,57.63Z"/><path class="cls-4" d="M88.4,63.23l3.27,37.2h-5s-7-22.33-7.77-30.3,4-8.79,4-8.79Z"/><path class="cls-4" d="M72.54,62.73l3.39,37.7H71s-7.33-24.2-8.13-32.17,4.34-6.92,4.34-6.92Z"/><path class="cls-5" d="M91.57,100.43H86.69v3.75h9.9c.66,0,.88-1.47.31-1.78Z"/><path class="cls-5" d="M75.93,100.43H71.05v3.75H81c.66,0,.88-1.47.31-1.78Z"/><path class="cls-6" d="M54.72,57.88H75.24l2.56-30.4a4.67,4.67,0,0,0-4.65-5.07H56.81a4.67,4.67,0,0,0-4.66,5.07Z"/><path class="cls-7" d="M63.68,24.31h3.19a1.93,1.93,0,0,0,1.8-2V18.36a1.92,1.92,0,0,0-1.8-2H63.68a1.91,1.91,0,0,0-1.79,2v3.93A1.92,1.92,0,0,0,63.68,24.31Z"/><path class="cls-8" d="M72.93,16.33C71.65,20.66,68,20,63.69,18.72A8.18,8.18,0,1,1,68.33,3C72.66,4.31,74.21,12,72.93,16.33Z"/><polygon class="cls-6" points="77.33 25.2 87.08 41.95 79.5 45.17 73.47 35.26 77.33 25.2"/><path class="cls-6" d="M52.25,23.19a38.08,38.08,0,0,0-11.73,19.3c-.6,1.27-.14,3.3,1.19,3.74l18.61,9.28,2.59-4.38-13-9.92,9.57-10.32L59,22.44S53.67,22,52.25,23.19Z"/><g class="cls-9"><rect class="cls-3" x="57.47" y="39.77" width="0.38" height="15.24" transform="translate(-16.52 55.64) rotate(-45.76)"/><rect class="cls-3" x="54.96" y="46.03" width="0.38" height="14.12" transform="translate(-17.51 77.19) rotate(-62.26)"/></g><rect class="cls-10" x="59.68" y="55.38" width="32.04" height="2.72"/><path class="cls-8" d="M60,55.46h8.17l.6-3.59H62.58a2.36,2.36,0,0,0-2.33,2Z"/><polygon class="cls-10" points="65.97 55.5 91.7 55.5 95.23 39.57 69.5 39.57 65.97 55.5"/><path class="cls-3" d="M79.41,48a1.7,1.7,0,1,0,1.69-1.69A1.69,1.69,0,0,0,79.41,48Z"/><path class="cls-11" d="M33.68,175.82c-.82-2.32,2.41-14.13,3.4-16.29S61.69,143,63.51,143.17s24.32,12,27.14,17S94,175.82,94,175.82Z"/><path class="cls-3" d="M98.24,191.22H29.12c-3.77,0-6.83-2.59-6.83-5.79v-4.77c0-3.2,3.06-5.79,6.83-5.79H98.24c3.77,0,6.83,2.59,6.83,5.79v4.77C105.07,188.63,102,191.22,98.24,191.22Z"/><path class="cls-11" d="M63.93,123.37c-1.12,0-9.7-4.73-14.54-8.21s-3.73-5-1.87-5.59,34.93-.37,36.29,1-6.33,6-9.69,8.33C71.66,120.62,66,123.37,63.93,123.37Z"/><path class="cls-12" d="M60.26,16.91c.47.43,2.3-.17,1.18-1.49-1.36-1.61-2.61-4.41-.37-4.91s1.62,2.18,2.61,2.18.12-3.55.5-5.53S69.65,5.42,72.13,5s2.8-5.71-3.6-5C64.21.57,61.07,1.87,58.34,6,56.27,9.08,57.28,14.18,60.26,16.91Z"/></svg>