<svg id="Layer_1" data-name="Layer 1" xmlns="http://www.w3.org/2000/svg" xmlns:xlink="http://www.w3.org/1999/xlink" viewBox="0 0 138.42 193.18"><defs><style>.cls-1{fill:#ffb3b6;}.cls-2{fill:#ffc1c1;}.cls-3{fill:#425ac2;}.cls-4{fill:#fff;}.cls-5{fill:#bbb;}.cls-6{fill:#03053f;}.cls-7{fill:#fe958e;}.cls-8{fill:#e98896;}.cls-9{clip-path:url(#clip-path);}.cls-10{fill:#0e24a5;}</style><clipPath id="clip-path"><path class="cls-1" d="M75.59,6.56c0,2.59,2.08,2.83,4.66,2.84a4.7,4.7,0,0,0,0-9.4C77.72,0,75.6,4,75.59,6.56Z"/></clipPath></defs><path class="cls-2" d="M71.87,13.15c0,2-2.4,7.09-2.4,7.09s-2.92-5.12-2.92-7.09,2.92-7.62,2.92-7.62S71.87,11.17,71.87,13.15Z"/><path class="cls-2" d="M50.28,16c.67,1.86.16,7.49.16,7.49S46,19.71,45.29,17.86s.14-8.17.14-8.17S49.61,14.17,50.28,16Z"/><path class="cls-2" d="M93.13,17.86c-.67,1.85-4.67,5.84-4.67,5.84s-1-5.81-.32-7.67,5.33-6.16,5.33-6.16S93.81,16,93.13,17.86Z"/><path class="cls-1" d="M49.3,12.93,49.68,16s-4.89-1-5.27-1.81A.91.91,0,0,1,44.66,13Z"/><path class="cls-3" d="M81.37,193.18H59.19a5.78,5.78,0,0,1-5.77-5.79V165.1a5.79,5.79,0,0,1,5.77-5.8H81.37a5.79,5.79,0,0,1,5.77,5.8v22.29A5.78,5.78,0,0,1,81.37,193.18Z"/><polygon class="cls-4" points="72.81 183.25 70.05 186.03 57.01 172.92 59.77 170.15 72.81 183.25"/><polygon class="cls-4" points="67.41 183.25 70.17 186.03 83.22 172.92 80.46 170.15 67.41 183.25"/><path class="cls-3" d="M42.5,193.18H20.31a5.78,5.78,0,0,1-5.77-5.79V165.1a5.79,5.79,0,0,1,5.77-5.8H42.5a5.78,5.78,0,0,1,5.76,5.8v22.29A5.77,5.77,0,0,1,42.5,193.18Z"/><polygon class="cls-4" points="33.93 183.25 31.17 186.03 18.13 172.92 20.89 170.15 33.93 183.25"/><polygon class="cls-4" points="28.54 183.25 31.29 186.03 44.34 172.92 41.58 170.15 28.54 183.25"/><path class="cls-5" d="M120.25,193.18H98.07a5.78,5.78,0,0,1-5.77-5.79V165.1a5.79,5.79,0,0,1,5.77-5.8h22.18a5.79,5.79,0,0,1,5.77,5.8v22.29A5.78,5.78,0,0,1,120.25,193.18Z"/><polygon class="cls-6" points="75.75 130 70.32 130.72 70.32 130.49 64.81 129.77 70.32 173.14 75.75 130"/><rect class="cls-2" x="47.65" y="72.18" width="45.27" height="62.87"/><path class="cls-7" d="M97.65,79H42.92c-3,0-5.41-2.07-5.41-4.61v-3.8c0-2.54,2.42-4.6,5.41-4.6H97.65c3,0,5.41,2.06,5.41,4.6v3.8C103.06,76.89,100.63,79,97.65,79Z"/><path class="cls-7" d="M97.65,142.41H42.92c-3,0-5.41-2.06-5.41-4.61V134c0-2.55,2.42-4.61,5.41-4.61H97.65c3,0,5.41,2.06,5.41,4.61v3.79C103.06,140.35,100.63,142.41,97.65,142.41Z"/><path class="cls-6" d="M72.81,9.58c-3.4,0-11.48,5.54-11.48,5.54l-12-2.27-.81,2.88,13.77,3.91s8.49-2.72,10.43-5.12S74.78,9.58,72.81,9.58Z"/><path class="cls-1" d="M105.92,15.93,105.53,19s4.89-1,5.28-1.81a.92.92,0,0,0-.26-1.23Z"/><path class="cls-6" d="M81.84,12.27c2.83,0,11.32,5.84,11.32,5.84l12.78-2.26.8,2.88L93,22.63s-8.5-2.71-10.44-5.11S79.87,12.27,81.84,12.27Z"/><path class="cls-6" d="M78.7,32.43l-13.85,0L69,13.09c.32-1.53,2.86-3.91,4.35-3.46l10,2.94a2.69,2.69,0,0,1,1.71,3.56Z"/><path class="cls-8" d="M79.33,12.47,77.59,12a1.1,1.1,0,0,1-.65-1.41l.65-2.16a1.09,1.09,0,0,1,1.31-.82l1.75.53a1.09,1.09,0,0,1,.64,1.41l-.64,2.16A1.1,1.1,0,0,1,79.33,12.47Z"/><path class="cls-1" d="M75.59,6.56c0,2.59,2.08,2.83,4.66,2.84a4.7,4.7,0,0,0,0-9.4C77.72,0,75.6,4,75.59,6.56Z"/><g class="cls-9"><path class="cls-7" d="M82.05,3s-.48,1.58-.26,1.65a1.61,1.61,0,0,1,1.5.93c.37,1-.51,1.52-1.27,1.47s-.82,2,1,2.15,3.59-3.64,3.18-5.44S83.48-.62,82.46-.81s-11.41.42-11.41.42Z"/></g><path class="cls-7" d="M78.7,32.43l-13.85,0V63.87H67.6s2.07-15.52,2.86-24.1h1.9L77,51,90.79,56.1l1.49-2.52L81.15,48.1S78.87,37.16,78.83,35A25.18,25.18,0,0,0,78.7,32.43Z"/><path class="cls-10" d="M64.81,63.83H67.6V66H61.94c-.37,0-.5-.84-.17-1Z"/><path class="cls-10" d="M90.38,55.77l1.54-2.34,1.79,1.19-3.14,4.74c-.2.31-1,0-.94-.42Z"/><path class="cls-2" d="M31,26.16c1.27,1.51,2.71,7,2.71,7s-5.51-2-6.78-3.55-2.64-7.72-2.64-7.72S29.71,24.64,31,26.16Z"/><path class="cls-2" d="M16.28,42.31c1.71,1,4.92,5.63,4.92,5.63s-5.87,0-7.58-1-5.1-6.34-5.1-6.34S14.58,41.32,16.28,42.31Z"/><path class="cls-2" d="M8,62.54c1.94.34,6.54,3.6,6.54,3.6s-5.52,2-7.46,1.65-7-4.2-7-4.2S6,62.19,8,62.54Z"/><path class="cls-2" d="M7.05,84.4c1.94-.35,7.37,1.14,7.37,1.14S9.91,89.31,8,89.66s-8-1.57-8-1.57S5.11,84.74,7.05,84.4Z"/><path class="cls-2" d="M13.62,105.26c1.71-1,7.32-1.46,7.32-1.46s-3,5.09-4.66,6.08-8,1.27-8,1.27S11.92,106.25,13.62,105.26Z"/><path class="cls-2" d="M26.9,122.6c1.27-1.51,6.38-3.89,6.38-3.89s-1,5.81-2.31,7.32-7.1,4-7.1,4S25.64,124.12,26.9,122.6Z"/><path class="cls-2" d="M107.44,126c-1.26-1.51-2.7-7-2.7-7s5.51,2,6.78,3.55,2.63,7.72,2.63,7.72S108.71,127.55,107.44,126Z"/><path class="cls-2" d="M122.14,109.88c-1.71-1-4.92-5.63-4.92-5.63s5.87,0,7.57,1,5.11,6.35,5.11,6.35S123.84,110.87,122.14,109.88Z"/><path class="cls-2" d="M130.45,89.66c-1.94-.35-6.54-3.61-6.54-3.61s5.52-2,7.46-1.65,7,4.21,7,4.21S132.38,90,130.45,89.66Z"/><path class="cls-2" d="M131.37,67.79c-1.94.35-7.37-1.14-7.37-1.14s4.51-3.77,6.45-4.11,8,1.56,8,1.56S133.31,67.45,131.37,67.79Z"/><path class="cls-2" d="M124.79,46.93c-1.7,1-7.31,1.46-7.31,1.46s3-5.09,4.66-6.08,8-1.27,8-1.27S126.5,45.94,124.79,46.93Z"/><path class="cls-2" d="M111.52,29.59c-1.27,1.51-6.38,3.89-6.38,3.89s1-5.81,2.3-7.32,7.11-4,7.11-4S112.78,28.07,111.52,29.59Z"/></svg>